<?xml version="1.0" encoding="UTF-8" standalone="no"?>
<!-- Created with Inkscape (http://www.inkscape.org/) -->

<svg
   version="1.1"
   id="svg1"
   width="2933.3333"
   height="2933.3333"
   viewBox="0 0 2933.3333 2933.3333"
   sodipodi:docname="success.svg"
   inkscape:version="1.3.2 (091e20ef0f, 2023-11-25, custom)"
   xmlns:inkscape="http://www.inkscape.org/namespaces/inkscape"
   xmlns:sodipodi="http://sodipodi.sourceforge.net/DTD/sodipodi-0.dtd"
   xmlns="http://www.w3.org/2000/svg"
   xmlns:svg="http://www.w3.org/2000/svg">
  <defs
     id="defs1" />
  <sodipodi:namedview
     id="namedview1"
     pagecolor="#ffffff"
     bordercolor="#000000"
     borderopacity="0.25"
     inkscape:showpageshadow="2"
     inkscape:pageopacity="0.0"
     inkscape:pagecheckerboard="0"
     inkscape:deskcolor="#d1d1d1"
     inkscape:zoom="0.29897729"
     inkscape:cx="1466.6666"
     inkscape:cy="2135.6137"
     inkscape:window-width="1900"
     inkscape:window-height="1032"
     inkscape:window-x="0"
     inkscape:window-y="0"
     inkscape:window-maximized="1"
     inkscape:current-layer="g1">
    <inkscape:page
       x="0"
       y="0"
       inkscape:label="1"
       id="page1"
       width="2933.3333"
       height="2933.3333"
       margin="0"
       bleed="0" />
  </sodipodi:namedview>
  <g
     id="g1"
     inkscape:groupmode="layer"
     inkscape:label="1">
    <path
       id="path2"
       d="M 2277.765,9799.8666 H 5211.0983 V 6866.5334 H 2277.765 v 2933.3332"
       style="fill:#ffffff;fill-opacity:1;fill-rule:nonzero;stroke:none;stroke-width:0.133333" />
    <g
       id="g10">
      <path
         id="path7"
         d="m 1374.84,2138 c 0,26.1733 -37.7334,49.6133 -41.04,74.8933 -3.368,25.8667 27.0133,58.2133 20.4133,82.92 -6.72,25.1333 -49.244,37.9867 -59.068,61.68 -9.936,23.96 10.9733,63.12 -1.9013,85.3733 -12.964,22.4134 -57.364,23.8 -73.0587,44.2267 -15.7453,20.4933 -5.6613,63.7333 -23.9053,81.9867 -18.244,18.24 -61.4934,8.1466 -81.984,23.8933 -20.4227,15.6933 -21.8147,60.1067 -44.2214,73.0667 -22.2506,12.8666 -61.4106,-8.04 -85.37329,1.8933 -23.68933,9.8267 -36.55333,52.3467 -61.67867,59.0667 -24.704,6.6 -57.05866,-23.7734 -82.92533,-20.4 -25.276,3.2933 -48.71466,41.0266 -74.888,41.0266 -26.17466,0 -49.61333,-37.7333 -74.88933,-41.0266 -25.86666,-3.3734 -58.22133,27 -82.92666,20.4 -25.12667,-6.72 -37.98933,-49.24 -61.68,-59.0667 -23.96267,-9.9333 -63.12267,10.9733 -85.37333,-1.8933 -22.40667,-12.9734 -23.79733,-57.3734 -44.22133,-73.0667 -20.49067,-15.7467 -63.74,-5.6533 -81.98267,-23.9067 -18.244,-18.24 -8.16,-61.4933 -23.90533,-81.9733 -15.69467,-20.4267 -60.09467,-21.8267 -73.05867,-44.2267 -12.87466,-22.2533 8.036,-61.4133 -1.90133,-85.3733 -9.82267,-23.6933 -52.34533,-36.56 -59.06133,-61.68 -6.60267,-24.7067 23.776,-57.0533 20.40267,-82.92 -3.296,-25.28 -41.032,-48.72 -41.032,-74.8933 0,-26.1733 37.736,-49.6133 41.032,-74.8933 3.37333,-25.8667 -27.00534,-58.2134 -20.40267,-82.92 6.716,-25.1334 49.23866,-37.9867 59.06266,-61.68 9.936,-23.96 -10.97333,-63.12 1.90134,-85.3734 12.964,-22.4133 57.364,-23.8 73.05866,-44.2266 15.74534,-20.4934 5.66134,-63.7334 23.90533,-81.9867 18.244,-18.24 61.49334,-8.1467 81.984,-23.8933 20.42267,-15.6934 21.81467,-60.0934 44.22134,-73.0667 22.25066,-12.8667 61.41066,8.04 85.37333,-1.8933 23.68933,-9.8267 36.55333,-52.3467 61.67866,-59.0667 24.704,-6.6 57.05867,23.7733 82.92533,20.4 25.276,-3.2933 48.71467,-41.0267 74.88933,-41.0267 26.17334,0 49.612,37.7334 74.88667,41.0267 25.868,3.3733 58.22266,-27 82.928,-20.4 25.12666,6.72 37.98933,49.24 61.68,59.0667 23.96262,9.9333 63.12262,-10.9734 85.37332,1.8933 22.4067,12.9733 23.7973,57.3733 44.2213,73.0667 20.4907,15.7466 63.74,5.6533 81.984,23.9066 18.2427,18.24 8.1587,61.4934 23.904,81.9734 15.6947,20.4266 60.0947,21.8266 73.0587,44.2266 12.8747,22.2534 -8.0347,61.4134 1.9013,85.3734 9.8227,23.6933 52.3467,36.56 59.0667,61.68 6.6,24.7066 -23.7813,57.0533 -20.4133,82.92 3.3066,25.28 41.04,48.72 41.04,74.8933"
         style="fill:#5ec34c;fill-opacity:1;fill-rule:nonzero;stroke:none;stroke-width:0.133333" />
      <path
         id="path8"
         d="m 678.20132,2351.36 -141.896,-141.8933 47.14,-47.1467 90.10266,90.1067 271.31466,-327.7867 51.35734,42.5067 -318.01866,384.2133"
         style="fill:#ffffff;fill-opacity:1;fill-rule:nonzero;stroke:none;stroke-width:0.133333" />
    </g>
    <g
       id="g11">
      <path
         id="path9"
         d="m 2777.7466,2138 c 0,26.1733 -37.7333,49.6133 -41.0267,74.8933 -3.3733,25.8667 27.0134,58.2133 20.4,82.92 -6.7066,25.1333 -49.24,37.9867 -59.0533,61.68 -9.9467,23.96 10.9733,63.12 -1.9067,85.3733 -12.96,22.4134 -57.36,23.8 -73.0533,44.2267 -15.7467,20.4933 -5.6667,63.7333 -23.9067,81.9867 -18.2533,18.24 -61.4933,8.1466 -81.9866,23.8933 -20.4267,15.6933 -21.8134,60.1067 -44.2267,73.0667 -22.2533,12.8666 -61.4,-8.04 -85.3733,1.8933 -23.68,9.8267 -36.5467,52.3467 -61.68,59.0667 -24.6934,6.6 -57.0534,-23.7734 -82.92,-20.4 -25.28,3.2933 -48.72,41.0266 -74.8934,41.0266 -26.1733,0 -49.6133,-37.7333 -74.88,-41.0266 -25.8666,-3.3734 -58.2266,27 -82.9333,20.4 -25.12,-6.72 -37.9866,-49.24 -61.68,-59.0667 -23.96,-9.9333 -63.12,10.9733 -85.3733,-1.8933 -22.4,-12.9734 -23.8,-57.3734 -44.2133,-73.0667 -20.4934,-15.7467 -63.7467,-5.6533 -81.9867,-23.9067 -18.24,-18.24 -8.16,-61.4933 -23.9067,-81.9733 -15.6933,-20.4267 -60.0933,-21.8267 -73.0533,-44.2267 -12.88,-22.2533 8.0267,-61.4133 -1.9067,-85.3733 -9.8266,-23.6933 -52.3466,-36.56 -59.0666,-61.68 -6.6,-24.7067 23.7866,-57.0533 20.4133,-82.92 -3.3067,-25.28 -41.04,-48.72 -41.04,-74.8933 0,-26.1733 37.7333,-49.6133 41.04,-74.8933 3.3733,-25.8667 -27.0133,-58.2134 -20.4133,-82.92 6.72,-25.1334 49.24,-37.9867 59.0666,-61.68 9.9334,-23.96 -10.9733,-63.12 1.9067,-85.3734 12.96,-22.4133 57.36,-23.8 73.0533,-44.2266 15.7467,-20.4934 5.6667,-63.7334 23.9067,-81.9867 18.24,-18.24 61.4933,-8.1467 81.9867,-23.8933 20.4266,-15.6934 21.8133,-60.0934 44.2133,-73.0667 22.2533,-12.8667 61.4133,8.04 85.3733,-1.8933 23.6934,-9.8267 36.56,-52.3467 61.68,-59.0667 24.7067,-6.6 57.0667,23.7733 82.9333,20.4 25.2667,-3.2933 48.7067,-41.0267 74.88,-41.0267 26.1734,0 49.6134,37.7334 74.8934,41.0267 25.8666,3.3733 58.2266,-27 82.9333,-20.4 25.12,6.72 37.9867,49.24 61.6667,59.0667 23.9733,9.9333 63.1333,-10.9734 85.3866,1.8933 22.4,12.9733 23.7867,57.3733 44.2134,73.0667 20.4933,15.7466 63.7466,5.6533 81.9866,23.9066 18.24,18.24 8.16,61.4934 23.9067,81.9734 15.6933,20.4266 60.0933,21.8266 73.0533,44.2266 12.88,22.2534 -8.04,61.4134 1.9067,85.3734 9.8133,23.6933 52.3467,36.56 59.0533,61.68 6.6134,24.7066 -23.7733,57.0533 -20.4,82.92 3.2934,25.28 41.0267,48.72 41.0267,74.8933"
         style="fill:#d92f52;fill-opacity:1;fill-rule:nonzero;stroke:none;stroke-width:0.133333" />
      <path
         id="path10"
         d="m 2365.3866,1973.4933 -47.1733,-47.1066 -150.0934,150.3333 -150.08,-150.3333 -47.1733,47.1066 150.16,150.4 -150.16,150.4 47.1733,47.1067 150.08,-150.3333 150.0934,150.3333 47.1733,-47.1067 -150.16,-150.4 150.16,-150.4"
         style="fill:#ffffff;fill-opacity:1;fill-rule:nonzero;stroke:none;stroke-width:0.133333" />
    </g>
  </g>
</svg>
